<svg xmlns="http://www.w3.org/2000/svg" version="1.1" xmlns:xlink="http://www.w3.org/1999/xlink" xmlns:svgjs="http://svgjs.dev/svgjs" width="1500" height="1500" viewBox="0 0 1500 1500"><rect width="1500" height="1500" fill="#ffffff"></rect><g transform="matrix(0.6666666666666666,0,0,0.6666666666666666,249.39393939393938,573.6506498800993)"><svg viewBox="0 0 396 140" data-background-color="#ffffff" preserveAspectRatio="xMidYMid meet" height="530" width="1500" xmlns="http://www.w3.org/2000/svg" xmlns:xlink="http://www.w3.org/1999/xlink"><g id="tight-bounds" transform="matrix(1,0,0,1,0.2400000000000091,-0.12572919777520042)"><svg viewBox="0 0 395.52 140.25145839555043" height="140.25145839555043" width="395.52"><g><svg viewBox="0 0 655.8939990674871 232.58012217360653" height="140.25145839555043" width="395.52"><g><rect width="7.9152720748532595" height="226.93497357715972" x="231.73811946683992" y="2.822574298223401" fill="#030303" opacity="1" stroke-width="0" stroke="transparent" fill-opacity="1" class="rect-qz-0" data-fill-palette-color="primary" rx="1%" id="qz-0" data-palette-color="#030303"></rect></g><g transform="matrix(1,0,0,1,260.37399906748703,3.3870891578680613)"><svg viewBox="0 0 395.52000000000004 225.8059438578704" height="225.8059438578704" width="395.52000000000004"><g id="textblocktransform"><svg viewBox="0 0 395.52000000000004 225.8059438578704" height="225.8059438578704" width="395.52000000000004" id="textblock"><g><svg viewBox="0 0 395.52000000000004 190.58408467966575" height="190.58408467966575" width="395.52000000000004"><g transform="matrix(1,0,0,1,0,0)"><svg width="395.52000000000004" viewBox="57.52 -35.01 157.76000000000002 73.02000000000001" height="190.58408467966575" data-palette-color="#030303"><svg></svg><svg></svg><g class="wordmark-text-0" data-fill-palette-color="primary" id="text-0"><path transform="translate(53.83,0)" d="M35.84-6.35v6.35h-28.96c-0.453 0-0.873-0.08-1.26-0.24-0.393-0.167-0.733-0.393-1.02-0.68-0.287-0.28-0.51-0.617-0.67-1.01-0.16-0.387-0.24-0.81-0.24-1.27v0-31.81h6.34v28.66zM68.19-17.65v0c0 0.88-0.157 1.827-0.47 2.84-0.307 1.02-0.807 1.963-1.5 2.83-0.687 0.873-1.59 1.603-2.71 2.19-1.113 0.587-2.467 0.88-4.06 0.88v0h-11.45v-6.03h11.45c0.86 0 1.527-0.263 2-0.79 0.473-0.533 0.71-1.19 0.71-1.97v0c0-0.833-0.267-1.483-0.8-1.95-0.527-0.473-1.163-0.71-1.91-0.71v0h-11.45c-0.867 0-1.533 0.263-2 0.79-0.473 0.533-0.71 1.19-0.71 1.97v0 8.86c0 0.847 0.263 1.507 0.79 1.98 0.533 0.473 1.19 0.71 1.97 0.71v0h11.4v6.05h-11.45c-0.88 0-1.83-0.153-2.85-0.46-1.013-0.313-1.957-0.817-2.83-1.51-0.867-0.687-1.593-1.59-2.18-2.71-0.587-1.113-0.88-2.467-0.88-4.06v0-8.91c0-0.88 0.153-1.83 0.46-2.85 0.313-1.013 0.813-1.957 1.5-2.83 0.693-0.867 1.597-1.593 2.71-2.18 1.12-0.587 2.477-0.88 4.07-0.88v0h11.45c0.88 0 1.827 0.153 2.84 0.46 1.02 0.313 1.963 0.813 2.83 1.5 0.873 0.693 1.603 1.597 2.19 2.71 0.587 1.12 0.88 2.477 0.88 4.07zM99.51-17.65v8.91c0 0.88-0.153 1.827-0.46 2.84-0.313 1.02-0.813 1.967-1.5 2.84-0.693 0.867-1.597 1.593-2.71 2.18-1.12 0.587-2.477 0.88-4.07 0.88v0h-11.45c-0.88 0-1.827-0.153-2.84-0.46-1.02-0.313-1.963-0.817-2.83-1.51-0.873-0.687-1.603-1.59-2.19-2.71-0.587-1.113-0.88-2.467-0.88-4.06v0c0-0.88 0.153-1.833 0.46-2.86 0.313-1.02 0.817-1.967 1.51-2.84 0.687-0.873 1.59-1.603 2.71-2.19 1.113-0.58 2.467-0.87 4.06-0.87v0h11.45v6.05h-11.45c-0.86 0-1.527 0.263-2 0.79-0.473 0.533-0.71 1.19-0.71 1.97v0c0 0.827 0.273 1.473 0.82 1.94 0.547 0.467 1.193 0.7 1.94 0.7v0h11.4c0.867 0 1.533-0.263 2-0.79 0.473-0.52 0.71-1.17 0.71-1.95v0-8.86c0-0.833-0.257-1.493-0.77-1.98-0.513-0.487-1.16-0.73-1.94-0.73v0h-13.94v-6.03h13.94c0.88 0 1.83 0.153 2.85 0.46 1.013 0.313 1.957 0.813 2.83 1.5 0.867 0.693 1.593 1.597 2.18 2.71 0.587 1.12 0.88 2.477 0.88 4.07zM128.03-26.39v6.35h-14.28c-0.867 0-1.52 0.213-1.96 0.64-0.44 0.433-0.66 1.067-0.66 1.9v0 17.5h-6.34v-17.5c0-1.093 0.137-2.07 0.41-2.93 0.28-0.867 0.65-1.63 1.11-2.29 0.467-0.66 1-1.22 1.6-1.68 0.6-0.467 1.23-0.847 1.89-1.14 0.66-0.293 1.327-0.507 2-0.64 0.68-0.14 1.313-0.21 1.9-0.21v0zM161.45-14.65v14.65h-6.35v-14.65c0-0.827-0.14-1.57-0.42-2.23-0.287-0.66-0.673-1.227-1.16-1.7-0.493-0.473-1.07-0.837-1.73-1.09-0.653-0.247-1.363-0.37-2.13-0.37v0h-11.11v20.04h-6.35v-23.24c0-0.44 0.083-0.853 0.25-1.24 0.16-0.38 0.387-0.713 0.68-1 0.293-0.28 0.637-0.503 1.03-0.67 0.387-0.16 0.8-0.24 1.24-0.24v0h14.31c0.793 0 1.633 0.09 2.52 0.27 0.887 0.18 1.767 0.467 2.64 0.86 0.873 0.4 1.703 0.907 2.49 1.52 0.787 0.607 1.487 1.347 2.1 2.22 0.613 0.873 1.097 1.877 1.45 3.01 0.36 1.14 0.54 2.427 0.54 3.86z" fill="#030303" fill-rule="nonzero" stroke="none" stroke-width="1" stroke-linecap="butt" stroke-linejoin="miter" stroke-miterlimit="10" stroke-dasharray="" stroke-dashoffset="0" font-family="none" font-weight="none" font-size="none" text-anchor="none" style="mix-blend-mode: normal" data-fill-palette-color="primary" opacity="1"></path><path transform="translate(66.36,38.01)" d="M26.54-17.5v17.5h-6.35v-17.5c0-0.833-0.22-1.467-0.66-1.9-0.44-0.427-1.09-0.64-1.95-0.64v0h-8.25v20.04h-6.35v-23.24c0-0.44 0.08-0.853 0.24-1.24 0.167-0.38 0.397-0.713 0.69-1 0.293-0.28 0.633-0.503 1.02-0.67 0.393-0.16 0.81-0.24 1.25-0.24v0h11.45c0.88 0 1.823 0.153 2.83 0.46 1.007 0.313 1.967 0.81 2.88 1.49v0-1.95h8.59c0.607 0 1.243 0.07 1.91 0.21 0.667 0.133 1.33 0.347 1.99 0.64 0.66 0.293 1.29 0.673 1.89 1.14 0.6 0.46 1.13 1.02 1.59 1.68 0.453 0.66 0.82 1.423 1.1 2.29 0.273 0.86 0.41 1.837 0.41 2.93v0 17.5h-6.35v-17.5c0-0.833-0.207-1.467-0.62-1.9-0.413-0.427-1.053-0.64-1.92-0.64v0h-5.71c0.213 0.78 0.32 1.627 0.32 2.54zM73.9-17.65v8.91c0 0.88-0.153 1.827-0.46 2.84-0.313 1.02-0.813 1.967-1.5 2.84-0.693 0.867-1.597 1.593-2.71 2.18-1.12 0.587-2.477 0.88-4.07 0.88v0h-11.45c-0.88 0-1.827-0.153-2.84-0.46-1.02-0.313-1.967-0.817-2.84-1.51-0.867-0.687-1.593-1.59-2.18-2.71-0.587-1.113-0.88-2.467-0.88-4.06v0c0-0.88 0.153-1.833 0.46-2.86 0.313-1.02 0.817-1.967 1.51-2.84 0.687-0.873 1.59-1.603 2.71-2.19 1.113-0.58 2.467-0.87 4.06-0.87v0h11.45v6.05h-11.45c-0.86 0-1.527 0.263-2 0.79-0.473 0.533-0.71 1.19-0.71 1.97v0c0 0.827 0.273 1.473 0.82 1.94 0.547 0.467 1.193 0.7 1.94 0.7v0h11.4c0.867 0 1.533-0.263 2-0.79 0.473-0.52 0.71-1.17 0.71-1.95v0-8.86c0-0.833-0.257-1.493-0.77-1.98-0.513-0.487-1.16-0.73-1.94-0.73v0h-13.94v-6.03h13.94c0.88 0 1.83 0.153 2.85 0.46 1.013 0.313 1.957 0.813 2.83 1.5 0.867 0.693 1.593 1.597 2.18 2.71 0.587 1.12 0.88 2.477 0.88 4.07zM103.22-26.39v6.35h-11.08v20.04h-6.42v-20.04h-8.25v-6.35h8.25v-8.62h6.42v8.62zM135.69-17.65v0c0 0.88-0.153 1.827-0.46 2.84-0.307 1.02-0.807 1.963-1.5 2.83-0.693 0.873-1.597 1.603-2.71 2.19-1.113 0.587-2.47 0.88-4.07 0.88v0h-11.45v-6.03h11.45c0.867 0 1.537-0.263 2.01-0.79 0.467-0.533 0.7-1.19 0.7-1.97v0c0-0.833-0.263-1.483-0.79-1.95-0.527-0.473-1.167-0.71-1.92-0.71v0h-11.45c-0.86 0-1.527 0.263-2 0.79-0.473 0.533-0.71 1.19-0.71 1.97v0 8.86c0 0.847 0.267 1.507 0.8 1.98 0.527 0.473 1.18 0.71 1.96 0.71v0h11.4v6.05h-11.45c-0.88 0-1.827-0.153-2.84-0.46-1.02-0.313-1.963-0.817-2.83-1.51-0.873-0.687-1.603-1.59-2.19-2.71-0.587-1.113-0.88-2.467-0.88-4.06v0-8.91c0-0.88 0.157-1.83 0.47-2.85 0.307-1.013 0.807-1.957 1.5-2.83 0.693-0.867 1.597-1.593 2.71-2.18 1.113-0.587 2.467-0.88 4.06-0.88v0h11.45c0.88 0 1.83 0.153 2.85 0.46 1.013 0.313 1.957 0.813 2.83 1.5 0.873 0.693 1.6 1.597 2.18 2.71 0.587 1.12 0.88 2.477 0.88 4.07z" fill="#030303" fill-rule="nonzero" stroke="none" stroke-width="1" stroke-linecap="butt" stroke-linejoin="miter" stroke-miterlimit="10" stroke-dasharray="" stroke-dashoffset="0" font-family="none" font-weight="none" font-size="none" text-anchor="none" style="mix-blend-mode: normal" data-fill-palette-color="primary" opacity="1"></path></g></svg></g></svg></g><g transform="matrix(1,0,0,1,0,211.30469220545962)"><svg viewBox="0 0 232.20979200000002 14.501251652410785" height="14.501251652410785" width="232.20979200000002"><g transform="matrix(1,0,0,1,0,0)"><svg width="232.20979200000002" viewBox="4.85 -37.1 734.12 45.85" height="14.501251652410785" data-palette-color="#636365"><path d="M31.35-0.95L31.35-0.95Q31.5-0.6 31.33-0.3 31.15 0 30.8 0L30.8 0 27.15 0Q26.6 0 26.35-0.6L26.35-0.6 19.9-16.35Q19.65-16.9 18.7-16.9L18.7-16.9 10.25-16.9Q9.9-16.9 9.78-16.75 9.65-16.6 9.65-16.35L9.65-16.35 9.65-0.8Q9.65 0 8.8 0L8.8 0 5.55 0Q5.15 0 5-0.18 4.85-0.35 4.85-0.65L4.85-0.65 4.85-36.4Q4.85-37.1 5.45-37.1L5.45-37.1 19.4-37.1Q25.3-37.1 28.58-34.68 31.85-32.25 31.85-27.5L31.85-27.5Q31.85-24.65 30.75-22.68 29.65-20.7 27.98-19.53 26.3-18.35 24.55-17.8L24.55-17.8Q24.15-17.75 24.35-17.3L24.35-17.3 31.35-0.95ZM18-20.4L18-20.4Q22.4-20.4 24.63-22 26.85-23.6 26.85-27.05L26.85-27.05Q26.85-30.4 24.88-32 22.9-33.6 19.15-33.6L19.15-33.6 10.35-33.6Q9.65-33.6 9.65-33.05L9.65-33.05 9.65-21.05Q9.65-20.4 10.1-20.4L10.1-20.4 18-20.4ZM39.6-11.6L39.6-11.6Q39.6-9.15 40.77-7.13 41.95-5.1 43.92-3.9 45.9-2.7 48.35-2.7L48.35-2.7Q50.85-2.7 52.8-3.73 54.75-4.75 56.15-6.85L56.15-6.85Q56.35-7.05 56.47-7.08 56.6-7.1 56.85-7L56.85-7 58.95-5.95Q59.4-5.7 59.05-5.25L59.05-5.25Q57.7-3.25 56.07-1.98 54.45-0.7 52.45-0.1 50.45 0.5 47.95 0.5L47.95 0.5Q44.25 0.5 41.4-1.2 38.55-2.9 36.9-5.95 35.25-9 35.25-13L35.25-13Q35.25-17.35 36.92-20.48 38.6-23.6 41.47-25.3 44.35-27 47.9-27L47.9-27Q51.55-27 54.25-25.4 56.95-23.8 58.45-20.75 59.95-17.7 59.95-13.4L59.95-13.4Q59.95-13.05 59.87-12.7 59.8-12.35 59.2-12.35L59.2-12.35 40.05-12.35Q39.85-12.35 39.72-12.13 39.6-11.9 39.6-11.6L39.6-11.6ZM39.7-15.1L54.9-15.1Q55.45-15.1 55.6-15.23 55.75-15.35 55.75-15.8L55.75-15.8Q55.75-17.95 54.82-19.83 53.9-21.7 52.17-22.85 50.45-24 48-24L48-24Q45.3-24 43.45-22.73 41.6-21.45 40.65-19.4 39.7-17.35 39.7-15.1L39.7-15.1ZM86.6-26.5L86.6-26.5Q86.95-26.5 87.1-26.28 87.25-26.05 87.1-25.75L87.1-25.75 76.95-0.75Q76.7 0 75.8 0L75.8 0 74 0Q73.05 0 72.75-0.7L72.75-0.7 62.65-25.75Q62.55-26.05 62.7-26.28 62.85-26.5 63.2-26.5L63.2-26.5 66.3-26.5Q66.6-26.5 66.8-26.38 67-26.25 67.1-25.95L67.1-25.95 74.95-6.3Q75.3-5.35 75.75-6.35L75.75-6.35 83.55-25.95Q83.65-26.25 83.82-26.38 84-26.5 84.3-26.5L84.3-26.5 86.6-26.5ZM102.19 0.5L102.19 0.5Q98.44 0.5 95.57-1.23 92.69-2.95 91.12-6.03 89.54-9.1 89.54-13.1L89.54-13.1Q89.54-17.25 91.17-20.38 92.79-23.5 95.64-25.25 98.49-27 102.24-27L102.24-27Q106.04-27 108.87-25.23 111.69-23.45 113.27-20.33 114.84-17.2 114.84-13.15L114.84-13.15Q114.84-9.15 113.24-6.08 111.64-3 108.82-1.25 105.99 0.5 102.19 0.5L102.19 0.5ZM102.29-2.65L102.29-2.65Q104.89-2.65 106.74-3.93 108.59-5.2 109.57-7.58 110.54-9.95 110.54-13.25L110.54-13.25Q110.54-16.55 109.54-18.93 108.54-21.3 106.69-22.6 104.84-23.9 102.24-23.9L102.24-23.9Q99.69-23.9 97.79-22.6 95.89-21.3 94.87-18.93 93.84-16.55 93.84-13.25L93.84-13.25Q93.84-10 94.87-7.6 95.89-5.2 97.79-3.93 99.69-2.65 102.29-2.65L102.29-2.65ZM125.29-36.45L125.29-0.85Q125.29-0.35 125.09-0.18 124.89 0 124.39 0L124.39 0 121.79 0Q121.04 0 121.04-0.7L121.04-0.7 121.09-36.4Q121.09-37.1 121.69-37.1L121.69-37.1 124.69-37.1Q125.29-37.1 125.29-36.45L125.29-36.45ZM141.99-2.8L141.99-2.8Q144.14-2.8 146.11-3.98 148.09-5.15 150.04-7.15L150.04-7.15 150.04-25.75Q150.04-26.5 150.84-26.5L150.84-26.5 153.59-26.5Q154.29-26.5 154.29-25.8L154.29-25.8 154.19-0.65Q154.19 0 153.64 0L153.64 0 150.74 0Q150.19 0 150.19-0.55L150.19-0.55 150.19-3.5Q150.19-3.75 150.09-3.8 149.99-3.85 149.74-3.65L149.74-3.65Q146.99-1.3 144.86-0.4 142.74 0.5 140.64 0.5L140.64 0.5Q138.34 0.5 136.54-0.45 134.74-1.4 133.69-3.13 132.64-4.85 132.64-7.15L132.64-7.15 132.64-25.7Q132.64-26.5 133.39-26.5L133.39-26.5 136.19-26.5Q136.84-26.5 136.84-25.8L136.84-25.8 136.84-8.25Q136.84-5.8 138.21-4.3 139.59-2.8 141.99-2.8L141.99-2.8ZM175.29-23.35L168.94-23.35Q168.54-23.35 168.54-22.95L168.54-22.95 168.54-7.1Q168.54-4.75 169.34-3.95 170.14-3.15 171.74-3.15L171.74-3.15 175.19-3.15Q175.44-3.15 175.59-3.03 175.74-2.9 175.74-2.6L175.74-2.6 175.69-0.9Q175.69-0.4 175.09-0.25L175.09-0.25Q174.59-0.15 173.66-0.1 172.74-0.05 171.86-0.03 170.99 0 170.39 0L170.39 0Q167.24 0 165.79-1.48 164.34-2.95 164.34-6.15L164.34-6.15 164.34-22.85Q164.34-23.35 163.84-23.35L163.84-23.35 159.84-23.35Q159.29-23.35 159.29-23.9L159.29-23.9 159.29-26Q159.29-26.5 159.79-26.5L159.79-26.5 164.04-26.5Q164.39-26.5 164.39-26.9L164.39-26.9 164.94-34.85Q164.99-35.5 165.49-35.5L165.49-35.5 167.99-35.5Q168.59-35.5 168.59-34.8L168.59-34.8 168.59-26.9Q168.59-26.5 168.99-26.5L168.99-26.5 175.29-26.5Q175.84-26.5 175.84-26.05L175.84-26.05 175.84-23.9Q175.84-23.35 175.29-23.35L175.29-23.35ZM185.48-25.85L185.48-0.85Q185.48-0.35 185.31-0.18 185.13 0 184.58 0L184.58 0 182.03 0Q181.58 0 181.43-0.15 181.28-0.3 181.28-0.7L181.28-0.7 181.28-25.8Q181.28-26.5 181.88-26.5L181.88-26.5 184.93-26.5Q185.48-26.5 185.48-25.85L185.48-25.85ZM185.68-36.35L185.68-32.2Q185.68-31.25 184.78-31.25L184.78-31.25 181.88-31.25Q181.43-31.25 181.28-31.48 181.13-31.7 181.13-32.1L181.13-32.1 181.13-36.3Q181.13-37.1 181.83-37.1L181.83-37.1 184.98-37.1Q185.68-37.1 185.68-36.35L185.68-36.35ZM204.33 0.5L204.33 0.5Q200.58 0.5 197.71-1.23 194.83-2.95 193.26-6.03 191.68-9.1 191.68-13.1L191.68-13.1Q191.68-17.25 193.31-20.38 194.93-23.5 197.78-25.25 200.63-27 204.38-27L204.38-27Q208.18-27 211.01-25.23 213.83-23.45 215.41-20.33 216.98-17.2 216.98-13.15L216.98-13.15Q216.98-9.15 215.38-6.08 213.78-3 210.96-1.25 208.13 0.5 204.33 0.5L204.33 0.5ZM204.43-2.65L204.43-2.65Q207.03-2.65 208.88-3.93 210.73-5.2 211.71-7.58 212.68-9.95 212.68-13.25L212.68-13.25Q212.68-16.55 211.68-18.93 210.68-21.3 208.83-22.6 206.98-23.9 204.38-23.9L204.38-23.9Q201.83-23.9 199.93-22.6 198.03-21.3 197.01-18.93 195.98-16.55 195.98-13.25L195.98-13.25Q195.98-10 197.01-7.6 198.03-5.2 199.93-3.93 201.83-2.65 204.43-2.65L204.43-2.65ZM223.88 0L223.88 0Q223.18 0 223.18-0.65L223.18-0.65 223.18-25.85Q223.18-26.5 223.73-26.5L223.73-26.5 226.73-26.5Q227.28-26.5 227.28-25.95L227.28-25.95 227.28-23.05Q227.28-22.8 227.38-22.75 227.48-22.7 227.73-22.9L227.73-22.9Q229.38-24.2 230.8-25.13 232.23-26.05 233.73-26.53 235.23-27 236.93-27L236.93-27Q240.83-27 242.9-24.9 244.98-22.8 244.98-19.45L244.98-19.45 244.98-0.8Q244.98 0 244.23 0L244.23 0 241.43 0Q241.08 0 240.93-0.18 240.78-0.35 240.78-0.65L240.78-0.65 240.78-18.5Q240.78-20.95 239.53-22.33 238.28-23.7 235.58-23.7L235.58-23.7Q234.13-23.7 232.85-23.23 231.58-22.75 230.28-21.88 228.98-21 227.38-19.65L227.38-19.65 227.38-0.75Q227.38 0 226.63 0L226.63 0 223.88 0ZM256.58-25.85L256.58-0.85Q256.58-0.35 256.4-0.18 256.23 0 255.68 0L255.68 0 253.13 0Q252.68 0 252.53-0.15 252.38-0.3 252.38-0.7L252.38-0.7 252.38-25.8Q252.38-26.5 252.98-26.5L252.98-26.5 256.03-26.5Q256.58-26.5 256.58-25.85L256.58-25.85ZM256.78-36.35L256.78-32.2Q256.78-31.25 255.88-31.25L255.88-31.25 252.98-31.25Q252.53-31.25 252.38-31.48 252.23-31.7 252.23-32.1L252.23-32.1 252.23-36.3Q252.23-37.1 252.93-37.1L252.93-37.1 256.08-37.1Q256.78-37.1 256.78-36.35L256.78-36.35ZM262.62 0L262.62 0Q262.27 0 262.15-0.13 262.02-0.25 262.02-0.6L262.02-0.6 262.02-2.05Q262.02-2.45 262.15-2.73 262.27-3 262.62-3.5L262.62-3.5 277.17-23.05Q277.57-23.55 276.92-23.55L276.92-23.55 263.67-23.55Q263.37-23.55 263.25-23.68 263.12-23.8 263.12-24.1L263.12-24.1 263.12-25.95Q263.12-26.5 263.62-26.5L263.62-26.5 282.12-26.5Q282.57-26.5 282.57-26L282.57-26 282.57-24.4Q282.57-24.05 282.47-23.75 282.37-23.45 282.07-23.05L282.07-23.05 267.47-3.5Q267.07-2.95 267.62-2.95L267.62-2.95 282.32-2.95Q282.87-2.95 282.87-2.5L282.87-2.5 282.87-0.6Q282.87-0.3 282.72-0.15 282.57 0 282.22 0L282.22 0 262.62 0ZM292.62-25.85L292.62-0.85Q292.62-0.35 292.45-0.18 292.27 0 291.72 0L291.72 0 289.17 0Q288.72 0 288.57-0.15 288.42-0.3 288.42-0.7L288.42-0.7 288.42-25.8Q288.42-26.5 289.02-26.5L289.02-26.5 292.07-26.5Q292.62-26.5 292.62-25.85L292.62-25.85ZM292.82-36.35L292.82-32.2Q292.82-31.25 291.92-31.25L291.92-31.25 289.02-31.25Q288.57-31.25 288.42-31.48 288.27-31.7 288.27-32.1L288.27-32.1 288.27-36.3Q288.27-37.1 288.97-37.1L288.97-37.1 292.12-37.1Q292.82-37.1 292.82-36.35L292.82-36.35ZM301.07 0L301.07 0Q300.37 0 300.37-0.65L300.37-0.65 300.37-25.85Q300.37-26.5 300.92-26.5L300.92-26.5 303.92-26.5Q304.47-26.5 304.47-25.95L304.47-25.95 304.47-23.05Q304.47-22.8 304.57-22.75 304.67-22.7 304.92-22.9L304.92-22.9Q306.57-24.2 307.99-25.13 309.42-26.05 310.92-26.53 312.42-27 314.12-27L314.12-27Q318.02-27 320.09-24.9 322.17-22.8 322.17-19.45L322.17-19.45 322.17-0.8Q322.17 0 321.42 0L321.42 0 318.62 0Q318.27 0 318.12-0.18 317.97-0.35 317.97-0.65L317.97-0.65 317.97-18.5Q317.97-20.95 316.72-22.33 315.47-23.7 312.77-23.7L312.77-23.7Q311.32-23.7 310.04-23.23 308.77-22.75 307.47-21.88 306.17-21 304.57-19.65L304.57-19.65 304.57-0.75Q304.57 0 303.82 0L303.82 0 301.07 0ZM353.52-26.95L353.52-26.95Q354.02-26.95 354.24-26.75 354.47-26.55 354.47-26.15L354.47-26.15 354.47-24.4Q354.47-23.95 354.24-23.7 354.02-23.45 353.47-23.5L353.47-23.5Q352.67-23.5 352.07-23.4 351.47-23.3 350.87-23.05L350.87-23.05Q349.67-22.6 349.87-21.9L349.87-21.9Q350.12-21.35 350.42-20.58 350.72-19.8 350.72-18.5L350.72-18.5Q350.72-16.3 349.57-14.48 348.42-12.65 345.99-11.55 343.57-10.45 339.87-10.45L339.87-10.45Q337.32-10.45 335.87-10.15 334.42-9.85 333.82-9.35 333.22-8.85 333.22-8.3L333.22-8.3Q333.22-7.5 334.29-7.15 335.37-6.8 337.77-6.65L337.77-6.65 344.22-6.3Q348.62-6.05 350.67-4.2 352.72-2.35 352.72 0.65L352.72 0.65Q352.72 4.4 349.39 6.58 346.07 8.75 339.92 8.75L339.92 8.75Q333.57 8.75 330.24 6.93 326.92 5.1 326.92 1.7L326.92 1.7Q326.92-0.05 328.14-1.45 329.37-2.85 331.62-3.95L331.62-3.95Q332.17-4.2 331.62-4.5L331.62-4.5Q330.52-5 329.92-5.73 329.32-6.45 329.32-7.45L329.32-7.45Q329.32-8.15 329.77-8.85 330.22-9.55 331.09-10.15 331.97-10.75 333.22-11.2L333.22-11.2Q333.52-11.3 333.52-11.45 333.52-11.6 333.27-11.8L333.27-11.8Q331.07-12.9 330.02-14.55 328.97-16.2 328.97-18.5L328.97-18.5Q328.97-22.4 331.92-24.65 334.87-26.9 340.27-26.9L340.27-26.9Q342.87-26.9 344.69-26.3 346.52-25.7 347.77-24.65L347.77-24.65Q348.07-24.4 348.32-24.4 348.57-24.4 348.82-24.65L348.82-24.65Q349.42-25.2 350.17-25.73 350.92-26.25 351.79-26.6 352.67-26.95 353.52-26.95L353.52-26.95ZM339.87-13.1L339.87-13.1Q343.37-13.1 345.07-14.53 346.77-15.95 346.77-18.55L346.77-18.55Q346.77-21.2 345.07-22.73 343.37-24.25 339.87-24.25L339.87-24.25Q336.52-24.25 334.69-22.73 332.87-21.2 332.87-18.55L332.87-18.55Q332.87-15.95 334.69-14.53 336.52-13.1 339.87-13.1L339.87-13.1ZM343.82-2.75L335.47-3.25Q334.57-3.3 333.47-2.73 332.37-2.15 331.52-1.15 330.67-0.15 330.67 1.2L330.67 1.2Q330.67 2.75 331.74 3.88 332.82 5 334.99 5.58 337.17 6.15 340.37 6.15L340.37 6.15Q344.52 6.15 346.67 4.93 348.82 3.7 348.82 1.15L348.82 1.15Q348.82-0.5 347.69-1.55 346.57-2.6 343.82-2.75L343.82-2.75ZM371.36-36.4L371.36-36.4Q371.36-37.1 371.96-37.1L371.96-37.1 375.56-37.1Q376.16-37.1 376.16-36.45L376.16-36.45 376.16-4.2Q376.16-3.7 376.66-3.7L376.66-3.7 393.96-3.7Q394.56-3.7 394.56-3.2L394.56-3.2 394.56-0.55Q394.56-0.3 394.41-0.15 394.26 0 393.96 0L393.96 0 372.06 0Q371.66 0 371.51-0.18 371.36-0.35 371.36-0.7L371.36-0.7 371.36-36.4ZM401.91-11.6L401.91-11.6Q401.91-9.15 403.08-7.13 404.26-5.1 406.23-3.9 408.21-2.7 410.66-2.7L410.66-2.7Q413.16-2.7 415.11-3.73 417.06-4.75 418.46-6.85L418.46-6.85Q418.66-7.05 418.78-7.08 418.91-7.1 419.16-7L419.16-7 421.26-5.95Q421.71-5.7 421.36-5.25L421.36-5.25Q420.01-3.25 418.38-1.98 416.76-0.7 414.76-0.1 412.76 0.5 410.26 0.5L410.26 0.5Q406.56 0.5 403.71-1.2 400.86-2.9 399.21-5.95 397.56-9 397.56-13L397.56-13Q397.56-17.35 399.23-20.48 400.91-23.6 403.78-25.3 406.66-27 410.21-27L410.21-27Q413.86-27 416.56-25.4 419.26-23.8 420.76-20.75 422.26-17.7 422.26-13.4L422.26-13.4Q422.26-13.05 422.18-12.7 422.11-12.35 421.51-12.35L421.51-12.35 402.36-12.35Q402.16-12.35 402.03-12.13 401.91-11.9 401.91-11.6L401.91-11.6ZM402.01-15.1L417.21-15.1Q417.76-15.1 417.91-15.23 418.06-15.35 418.06-15.8L418.06-15.8Q418.06-17.95 417.13-19.83 416.21-21.7 414.48-22.85 412.76-24 410.31-24L410.31-24Q407.61-24 405.76-22.73 403.91-21.45 402.96-19.4 402.01-17.35 402.01-15.1L402.01-15.1ZM443.41-3.2L443.41-3.2Q441.56-1.4 439.38-0.45 437.21 0.5 434.51 0.5L434.51 0.5Q430.61 0.5 428.38-1.5 426.16-3.5 426.16-6.75L426.16-6.75Q426.16-9.4 427.66-11.33 429.16-13.25 432.11-14.38 435.06-15.5 439.36-15.75L439.36-15.75 443.26-16.05Q443.56-16.1 443.81-16.25 444.06-16.4 444.06-16.8L444.06-16.8 444.06-18.15Q444.06-20.85 442.38-22.43 440.71-24 437.86-24L437.86-24Q435.66-24 433.88-23 432.11-22 430.71-20L430.71-20Q430.51-19.75 430.38-19.68 430.26-19.6 429.96-19.7L429.96-19.7 427.26-20.6Q427.11-20.7 427.03-20.85 426.96-21 427.16-21.4L427.16-21.4Q428.66-24 431.38-25.5 434.11-27 438.06-27L438.06-27Q441.41-27 443.63-25.98 445.86-24.95 446.98-23.03 448.11-21.1 448.11-18.45L448.11-18.45 448.11-0.75Q448.11-0.3 447.96-0.15 447.81 0 447.46 0L447.46 0 444.91 0Q444.56 0 444.41-0.23 444.26-0.45 444.21-0.8L444.21-0.8 444.16-3.1Q444.01-3.8 443.41-3.2L443.41-3.2ZM444.06-12.7L444.06-12.7Q444.06-13.55 443.36-13.5L443.36-13.5 440.06-13.2Q437.76-13.1 435.96-12.63 434.16-12.15 432.91-11.4 431.66-10.65 431.01-9.63 430.36-8.6 430.36-7.25L430.36-7.25Q430.36-5.05 431.88-3.83 433.41-2.6 436.01-2.6L436.01-2.6Q437.61-2.6 439.08-3.18 440.56-3.75 441.66-4.65L441.66-4.65Q442.81-5.6 443.43-6.6 444.06-7.6 444.06-8.55L444.06-8.55 444.06-12.7ZM456.25 0L456.25 0Q455.9 0 455.73-0.18 455.55-0.35 455.55-0.65L455.55-0.65 455.55-25.85Q455.55-26.5 456.1-26.5L456.1-26.5 459-26.5Q459.55-26.5 459.55-25.95L459.55-25.95 459.55-22.7Q459.55-22.4 459.7-22.35 459.85-22.3 460.1-22.55L460.1-22.55Q461.4-24.1 462.68-25.08 463.95-26.05 465.25-26.53 466.55-27 467.85-27L467.85-27Q469.6-27 469.6-26.35L469.6-26.35 469.6-23.35Q469.6-22.85 469.15-22.95L469.15-22.95Q468.7-23 468.13-23.05 467.55-23.1 466.9-23.1L466.9-23.1Q465.8-23.1 464.55-22.63 463.3-22.15 462.23-21.3 461.15-20.45 460.45-19.4 459.75-18.35 459.75-17.3L459.75-17.3 459.75-0.75Q459.75 0 459 0L459 0 456.25 0ZM475.4 0L475.4 0Q474.7 0 474.7-0.65L474.7-0.65 474.7-25.85Q474.7-26.5 475.25-26.5L475.25-26.5 478.25-26.5Q478.8-26.5 478.8-25.95L478.8-25.95 478.8-23.05Q478.8-22.8 478.9-22.75 479-22.7 479.25-22.9L479.25-22.9Q480.9-24.2 482.33-25.13 483.75-26.05 485.25-26.53 486.75-27 488.45-27L488.45-27Q492.35-27 494.43-24.9 496.5-22.8 496.5-19.45L496.5-19.45 496.5-0.8Q496.5 0 495.75 0L495.75 0 492.95 0Q492.6 0 492.45-0.18 492.3-0.35 492.3-0.65L492.3-0.65 492.3-18.5Q492.3-20.95 491.05-22.33 489.8-23.7 487.1-23.7L487.1-23.7Q485.65-23.7 484.38-23.23 483.1-22.75 481.8-21.88 480.5-21 478.9-19.65L478.9-19.65 478.9-0.75Q478.9 0 478.15 0L478.15 0 475.4 0ZM508.1-25.85L508.1-0.85Q508.1-0.35 507.92-0.18 507.75 0 507.2 0L507.2 0 504.65 0Q504.2 0 504.05-0.15 503.9-0.3 503.9-0.7L503.9-0.7 503.9-25.8Q503.9-26.5 504.5-26.5L504.5-26.5 507.55-26.5Q508.1-26.5 508.1-25.85L508.1-25.85ZM508.3-36.35L508.3-32.2Q508.3-31.25 507.4-31.25L507.4-31.25 504.5-31.25Q504.05-31.25 503.9-31.48 503.75-31.7 503.75-32.1L503.75-32.1 503.75-36.3Q503.75-37.1 504.45-37.1L504.45-37.1 507.6-37.1Q508.3-37.1 508.3-36.35L508.3-36.35ZM516.54 0L516.54 0Q515.85 0 515.85-0.65L515.85-0.65 515.85-25.85Q515.85-26.5 516.39-26.5L516.39-26.5 519.39-26.5Q519.95-26.5 519.95-25.95L519.95-25.95 519.95-23.05Q519.95-22.8 520.04-22.75 520.14-22.7 520.39-22.9L520.39-22.9Q522.04-24.2 523.47-25.13 524.89-26.05 526.39-26.53 527.89-27 529.6-27L529.6-27Q533.5-27 535.57-24.9 537.64-22.8 537.64-19.45L537.64-19.45 537.64-0.8Q537.64 0 536.89 0L536.89 0 534.1 0Q533.75 0 533.6-0.18 533.45-0.35 533.45-0.65L533.45-0.65 533.45-18.5Q533.45-20.95 532.2-22.33 530.95-23.7 528.25-23.7L528.25-23.7Q526.79-23.7 525.52-23.23 524.25-22.75 522.95-21.88 521.64-21 520.04-19.65L520.04-19.65 520.04-0.75Q520.04 0 519.29 0L519.29 0 516.54 0ZM568.99-26.95L568.99-26.95Q569.49-26.95 569.72-26.75 569.94-26.55 569.94-26.15L569.94-26.15 569.94-24.4Q569.94-23.95 569.72-23.7 569.49-23.45 568.94-23.5L568.94-23.5Q568.14-23.5 567.54-23.4 566.94-23.3 566.34-23.05L566.34-23.05Q565.14-22.6 565.34-21.9L565.34-21.9Q565.59-21.35 565.89-20.58 566.19-19.8 566.19-18.5L566.19-18.5Q566.19-16.3 565.04-14.48 563.89-12.65 561.47-11.55 559.04-10.45 555.34-10.45L555.34-10.45Q552.79-10.45 551.34-10.15 549.89-9.85 549.29-9.35 548.69-8.85 548.69-8.3L548.69-8.3Q548.69-7.5 549.77-7.15 550.84-6.8 553.24-6.65L553.24-6.65 559.69-6.3Q564.09-6.05 566.14-4.2 568.19-2.35 568.19 0.65L568.19 0.65Q568.19 4.4 564.87 6.58 561.54 8.75 555.39 8.75L555.39 8.75Q549.04 8.75 545.72 6.93 542.39 5.1 542.39 1.7L542.39 1.7Q542.39-0.05 543.62-1.45 544.84-2.85 547.09-3.95L547.09-3.95Q547.64-4.2 547.09-4.5L547.09-4.5Q545.99-5 545.39-5.73 544.79-6.45 544.79-7.45L544.79-7.45Q544.79-8.15 545.24-8.85 545.69-9.55 546.57-10.15 547.44-10.75 548.69-11.2L548.69-11.2Q548.99-11.3 548.99-11.45 548.99-11.6 548.74-11.8L548.74-11.8Q546.54-12.9 545.49-14.55 544.44-16.2 544.44-18.5L544.44-18.5Q544.44-22.4 547.39-24.65 550.34-26.9 555.74-26.9L555.74-26.9Q558.34-26.9 560.17-26.3 561.99-25.7 563.24-24.65L563.24-24.65Q563.54-24.4 563.79-24.4 564.04-24.4 564.29-24.65L564.29-24.65Q564.89-25.2 565.64-25.73 566.39-26.25 567.27-26.6 568.14-26.95 568.99-26.95L568.99-26.95ZM555.34-13.1L555.34-13.1Q558.84-13.1 560.54-14.53 562.24-15.95 562.24-18.55L562.24-18.55Q562.24-21.2 560.54-22.73 558.84-24.25 555.34-24.25L555.34-24.25Q551.99-24.25 550.17-22.73 548.34-21.2 548.34-18.55L548.34-18.55Q548.34-15.95 550.17-14.53 551.99-13.1 555.34-13.1L555.34-13.1ZM559.29-2.75L550.94-3.25Q550.04-3.3 548.94-2.73 547.84-2.15 546.99-1.15 546.14-0.15 546.14 1.2L546.14 1.2Q546.14 2.75 547.22 3.88 548.29 5 550.47 5.58 552.64 6.15 555.84 6.15L555.84 6.15Q559.99 6.15 562.14 4.93 564.29 3.7 564.29 1.15L564.29 1.15Q564.29-0.5 563.17-1.55 562.04-2.6 559.29-2.75L559.29-2.75ZM619.74-26.5L619.74-26.5Q620.04-26.5 620.19-26.28 620.34-26.05 620.24-25.75L620.24-25.75 612.59-0.65Q612.49-0.3 612.26-0.15 612.04 0 611.64 0L611.64 0 609.24 0Q608.39 0 608.19-0.65L608.19-0.65 602.24-19.35Q602.04-19.8 601.89-19.8 601.74-19.8 601.64-19.35L601.64-19.35 595.99-0.65Q595.89-0.3 595.66-0.15 595.44 0 595.04 0L595.04 0 592.49 0Q591.69 0 591.44-0.65L591.44-0.65 583.54-25.75Q583.49-26.05 583.64-26.28 583.79-26.5 584.14-26.5L584.14-26.5 587.09-26.5Q587.39-26.5 587.59-26.38 587.79-26.25 587.89-25.95L587.89-25.95 593.84-6.5Q593.99-6 594.19-6.03 594.39-6.05 594.59-6.55L594.59-6.55 600.49-26Q600.59-26.25 600.76-26.38 600.94-26.5 601.19-26.5L601.19-26.5 603.54-26.5Q603.84-26.5 604.04-26.38 604.24-26.25 604.29-25.95L604.29-25.95 610.44-6.5Q610.59-6 610.79-6.03 610.99-6.05 611.14-6.55L611.14-6.55 616.89-25.95Q617.04-26.25 617.24-26.38 617.44-26.5 617.74-26.5L617.74-26.5 619.74-26.5ZM629.83-25.85L629.83-0.85Q629.83-0.35 629.66-0.18 629.48 0 628.93 0L628.93 0 626.38 0Q625.93 0 625.78-0.15 625.63-0.3 625.63-0.7L625.63-0.7 625.63-25.8Q625.63-26.5 626.23-26.5L626.23-26.5 629.28-26.5Q629.83-26.5 629.83-25.85L629.83-25.85ZM630.03-36.35L630.03-32.2Q630.03-31.25 629.13-31.25L629.13-31.25 626.23-31.25Q625.78-31.25 625.63-31.48 625.48-31.7 625.48-32.1L625.48-32.1 625.48-36.3Q625.48-37.1 626.18-37.1L626.18-37.1 629.33-37.1Q630.03-37.1 630.03-36.35L630.03-36.35ZM650.93-23.35L644.58-23.35Q644.18-23.35 644.18-22.95L644.18-22.95 644.18-7.1Q644.18-4.75 644.98-3.95 645.78-3.15 647.38-3.15L647.38-3.15 650.83-3.15Q651.08-3.15 651.23-3.03 651.38-2.9 651.38-2.6L651.38-2.6 651.33-0.9Q651.33-0.4 650.73-0.25L650.73-0.25Q650.23-0.15 649.31-0.1 648.38-0.05 647.51-0.03 646.63 0 646.03 0L646.03 0Q642.88 0 641.43-1.48 639.98-2.95 639.98-6.15L639.98-6.15 639.98-22.85Q639.98-23.35 639.48-23.35L639.48-23.35 635.48-23.35Q634.93-23.35 634.93-23.9L634.93-23.9 634.93-26Q634.93-26.5 635.43-26.5L635.43-26.5 639.68-26.5Q640.03-26.5 640.03-26.9L640.03-26.9 640.58-34.85Q640.63-35.5 641.13-35.5L641.13-35.5 643.63-35.5Q644.23-35.5 644.23-34.8L644.23-34.8 644.23-26.9Q644.23-26.5 644.63-26.5L644.63-26.5 650.93-26.5Q651.48-26.5 651.48-26.05L651.48-26.05 651.48-23.9Q651.48-23.35 650.93-23.35L650.93-23.35ZM657.63 0L657.63 0Q656.98 0 656.98-0.65L656.98-0.65 656.98-36.45Q656.98-37.1 657.53-37.1L657.53-37.1 660.48-37.1Q661.03-37.1 661.03-36.5L661.03-36.5 661.03-23.15Q661.03-22.9 661.13-22.85 661.23-22.8 661.48-23L661.48-23Q663.23-24.35 664.7-25.25 666.18-26.15 667.6-26.58 669.03-27 670.73-27L670.73-27Q674.63-27 676.68-24.93 678.73-22.85 678.73-19.4L678.73-19.4 678.73-0.8Q678.73 0 677.98 0L677.98 0 675.18 0Q674.83 0 674.68-0.18 674.53-0.35 674.53-0.65L674.53-0.65 674.53-18.5Q674.53-20.95 673.28-22.33 672.03-23.7 669.33-23.7L669.33-23.7Q667.88-23.7 666.6-23.23 665.33-22.75 664.03-21.88 662.73-21 661.18-19.65L661.18-19.65 661.18-0.75Q661.18 0 660.38 0L660.38 0 657.63 0ZM695.72 0L695.72 0Q695.42 0 695.3-0.23 695.17-0.45 695.27-0.85L695.27-0.85 708.22-36.4Q708.37-36.75 708.57-36.93 708.77-37.1 709.22-37.1L709.22-37.1 713.12-37.1Q714.02-37.1 714.27-36.35L714.27-36.35 727.07-0.85Q727.17-0.55 727.05-0.28 726.92 0 726.57 0L726.57 0 723.02 0Q722.42 0 722.22-0.5L722.22-0.5 718.77-10.2Q718.67-10.4 718.57-10.5 718.47-10.6 718.17-10.6L718.17-10.6 703.62-10.6Q703.17-10.6 703.02-10.2L703.02-10.2 699.47-0.45Q699.42-0.25 699.25-0.13 699.07 0 698.72 0L698.72 0 695.72 0ZM704.77-14.4L716.87-14.4Q717.47-14.4 717.27-15.05L717.27-15.05 711.27-31.5Q711.07-31.95 710.9-31.95 710.72-31.95 710.57-31.5L710.57-31.5 704.47-14.95Q704.22-14.4 704.77-14.4L704.77-14.4ZM734.77-37.1L738.37-37.1Q738.97-37.1 738.97-36.45L738.97-36.45 738.97-0.85Q738.97-0.35 738.77-0.18 738.57 0 738.07 0L738.07 0 734.92 0Q734.47 0 734.32-0.15 734.17-0.3 734.17-0.7L734.17-0.7 734.17-36.4Q734.17-37.1 734.77-37.1L734.77-37.1Z" opacity="1" transform="matrix(1,0,0,1,0,0)" fill="#636365" class="slogan-text-1" data-fill-palette-color="secondary" id="text-1"></path></svg></g></svg></g></svg></g></svg></g><g><svg viewBox="0 0 211.01751194104605 232.58012217360653" height="232.58012217360653" width="211.01751194104605"><g><svg xmlns="http://www.w3.org/2000/svg" xmlns:xlink="http://www.w3.org/1999/xlink" version="1.1" x="0" y="0" viewBox="5.359000000000002 0.9212806434190275 89.04204807009214 98.14071935658097" enable-background="new 0 0 100 100" xml:space="preserve" height="232.58012217360653" width="211.01751194104605" class="icon-icon-0" data-fill-palette-color="accent" id="icon-0"><g fill="#2a2928" data-fill-palette-color="accent"><path d="M94.078 41.762c1.787-13.531-3.702-29.744-19.914-37.02C61.345-1.011 38.719-1.001 26.785 9.878c-10.408 9.49-12.754 22.959-12.754 22.959s-1.074 5.004-1.074 6.665c0 1.588 1.788 2.213 1.583 3.029-0.204 0.816-2.207 3.151-3.738 5.703-1.53 2.551-5.443 8.222-5.443 9.752s0.916 2.097 2.753 2.709c1.836 0.612 3.265 1.122 3.571 1.836s-0.875 2.754-0.938 4.209c-0.054 1.241 0.4 1.379 1.33 1.74 1.153 0.449 2.923 0.507 2.923 0.507s-3.943 0.745-3.551 2.359c0.406 1.675 2.781 2.015 2.992 3.327 0.105 0.662-2.008 4.053-1.73 7.354 0.363 4.308 4.444 6.236 10.914 5.198 6.167-0.99 9.067-1.91 9.86 1.491 0.499 2.141 0.446 5.753 1.364 9.836 0.038 0.163 0.077 0.338 0.114 0.51h47.327c-2.024-3.689-4.685-9.61-4.685-17.144 0-5.169 0.514-12.842 4.221-16.923C86.471 59.879 92.643 52.634 94.078 41.762zM74.537 52.486c0 0-0.619 6.769-5.588 7.639-4.255 0.744-7.08-3.354-7.08-3.354l-1.398 6.613h-2.979c0 0-2.701-9.966-4.564-11.644-1.864-1.677-4.752-2.142-4.752-2.142s-3.912-0.28-6.428-2.794c-2.515-2.516-0.186-5.59-0.186-5.59s-3.167 0.187-9.595-1.21c-6.427-1.398-4.471-5.497-4.471-5.497s-1.677 0.28-3.074-1.49c-0.993-1.258-1.717-4.335 0.093-7.918 1.622-3.209 4.469-4.323 4.469-4.323s-1.054-1.338 1.169-3.207c1.161-0.976 3.211-0.947 3.211-0.947s0.501-2.151 3.587-3.546c3.496-1.579 5.822-0.273 5.822-0.273s0.934-2.046 3.635-2.978c2.702-0.931 5.4 0.649 5.4 0.649s1.828-1.653 5.182-1.653c3.353 0 4.601 1.747 4.601 1.747s2.02-1.038 4.471-0.187c2.316 0.805 2.986 3.05 2.986 3.05s1.673-1.187 4-0.255c2.329 0.932 3.262 3.447 3.262 3.447s1.605-0.235 3.202 1.183c1.185 1.054 0.802 3.009 0.802 3.009s1.976 0.656 3.158 3.021c1.101 2.201-0.456 4.059-0.456 4.059s3.26 2.422 3.726 8.756c0.568 7.728-4.377 9.222-4.377 9.222s0.978 2.452-0.746 5.123C79.273 54.631 74.537 52.486 74.537 52.486z" fill="#2a2928" data-fill-palette-color="accent"></path></g></svg></g></svg></g></svg></g><defs></defs></svg><rect width="395.52" height="140.25145839555043" fill="none" stroke="none" visibility="hidden"></rect></g></svg></g></svg>